# Blender 3.5.1
# www.blender.org
mtllib rock 3.mtl
o stylized_rock_03
v 8.499574 0.035335 3.136571
v 8.525766 0.138551 2.894014
v 8.732808 0.066778 3.208871
v 8.574071 -0.222258 2.870195
v 8.797516 -0.215271 3.098122
v 8.524259 0.040781 2.702924
v 8.894952 -0.062485 2.653727
v 8.992304 -0.079572 2.753996
v 8.910140 0.204841 2.993242
v 8.994418 -0.047354 3.132841
v 8.966114 0.029588 2.709790
v 9.022514 -0.181950 3.101103
v 8.645985 0.206056 2.729646
v 8.940269 0.173799 2.766195
v 8.875072 0.222258 2.775518
v 8.925208 0.220364 2.843158
v 8.490356 -0.082018 3.136450
v 8.502725 -0.153574 3.085843
v 8.539590 -0.150857 3.129809
v 8.527799 -0.102883 3.148667
v 8.509556 -0.029475 2.648437
v 8.573172 -0.077397 2.626617
v 8.527370 -0.108054 2.670710
vn -0.2332 0.9036 0.3593
vn -0.9801 -0.1208 -0.1573
vn -0.2085 -0.9497 0.2335
vn 0.0245 -0.3605 0.9324
vn 0.2582 -0.9397 -0.2244
vn 0.0443 0.5548 -0.8308
vn -0.9874 -0.1373 0.0781
vn 0.2104 -0.9092 -0.3592
vn 0.9530 0.3013 -0.0309
vn 0.9681 0.2477 0.0380
vn 0.9775 0.2095 -0.0233
vn 0.7027 -0.1157 -0.7020
vn 0.1439 -0.9457 -0.2915
vn 0.0205 -0.2254 0.9740
vn 0.1717 0.4121 -0.8948
vn -0.0889 0.9916 0.0936
vn -0.7445 0.5967 -0.2994
vn -0.2221 0.9482 0.2270
vn -0.0709 0.2099 -0.9751
vn 0.9848 0.1325 0.1126
vn 0.4440 0.5429 0.7128
vn 0.1237 -0.3380 0.9330
vn -0.2495 0.8956 0.3682
vn -0.9200 -0.1012 0.3787
vn -0.2988 0.0225 0.9541
vn 0.5213 0.7715 -0.3648
vn 0.1551 0.3838 -0.9103
vn -0.5201 -0.5513 0.6524
vn -0.9395 0.0741 -0.3344
vn -0.5240 -0.3401 -0.7808
vn 0.0826 -0.8564 -0.5096
vn 0.1658 0.5825 -0.7958
vn -0.9791 -0.0623 0.1935
vn -0.6879 -0.4057 0.6019
vt 0.731862 0.443021
vt 0.008293 0.525052
vt 0.635759 0.518819
vt 0.635759 0.777380
vt 0.731862 0.186115
vt 0.546300 0.474340
vt 0.000000 0.761526
vt 0.374107 0.662552
vt 0.213299 0.450051
vt 0.374107 0.222802
vt 0.231829 0.777929
vt 0.779504 0.508093
vt 0.511309 0.912958
vt 0.635759 0.837853
vt 0.018881 0.125308
vt 1.000000 0.355157
vt 0.639230 0.946133
vt 0.095510 0.029246
vt 0.427001 0.215396
vt 0.731862 0.215315
vt 0.892991 0.009862
vt 0.374107 0.399158
vt 0.124733 0.992831
vt 0.928273 0.428694
vt 0.704018 0.928793
vt 1.000000 0.000000
vt 0.369402 0.000000
vt 0.231829 1.000000
vt 0.629717 0.952652
vt 0.656096 0.000000
vt 0.880512 0.652379
vt 0.809300 0.418206
vt 0.823127 0.934768
vt 0.478589 0.010807
vt 0.869173 0.881198
vt 0.880512 0.940808
vt 0.433066 0.068651
vt 0.756715 0.359971
vt 0.093715 0.501352
vt 0.553947 0.474340
vt 0.343570 0.499431
vt 0.155519 0.499431
vt 0.488478 0.493055
vt 0.374107 0.461427
vt 0.150896 0.539658
vt 0.111373 0.536111
vt 0.446756 0.935411
vt 0.717588 0.474340
vt 0.404111 0.937567
vt 0.668357 0.524243
vt 0.000000 0.440083
vt 0.397520 0.885661
vt 0.039306 0.487024
s 0
usemtl stylized_rock_03
f 2/5/1 1/1/1 3/6/1
f 2/4/2 4/8/2 1/3/2
f 19/44/3 4/9/3 5/10/3
f 5/11/4 20/46/4 19/45/4
f 5/10/5 4/9/5 8/18/5
f 19/44/3 18/41/3 4/9/3
f 22/50/6 6/12/6 7/14/6
f 2/4/7 6/13/7 4/8/7
f 7/15/8 8/18/8 4/9/8
f 9/20/9 10/21/9 8/16/9
f 8/16/10 11/24/10 9/20/10
f 12/26/11 8/16/11 10/21/11
f 7/14/12 11/25/12 8/17/12
f 8/18/13 12/27/13 5/10/13
f 5/11/14 12/28/14 10/23/14
f 7/14/15 13/31/15 11/25/15
f 9/19/16 15/34/16 13/30/16
f 13/29/17 6/13/17 2/4/17
f 13/30/18 2/5/18 9/19/18
f 6/12/19 13/31/19 7/14/19
f 14/32/20 9/20/20 11/24/20
f 3/6/21 10/22/21 9/19/21
f 10/23/22 3/7/22 5/11/22
f 9/19/23 2/5/23 3/6/23
f 23/52/24 6/13/24 21/47/24
f 1/2/25 20/46/25 3/7/25
f 14/33/26 15/35/26 16/36/26
f 15/35/27 11/25/27 13/31/27
f 18/42/28 20/46/28 17/39/28
f 18/43/29 1/3/29 4/8/29
f 21/47/30 22/49/30 23/52/30
f 4/9/31 22/51/31 7/15/31
f 5/11/4 3/7/4 20/46/4
f 22/50/32 21/48/32 6/12/32
f 9/19/16 16/37/16 15/34/16
f 14/32/20 16/38/20 9/20/20
f 23/52/33 4/8/33 6/13/33
f 1/2/25 17/39/25 20/46/25
f 15/35/27 14/33/27 11/25/27
f 18/42/34 19/45/34 20/46/34
f 18/43/29 17/40/29 1/3/29
f 4/9/31 23/53/31 22/51/31
